<svg width="130" height="40" viewBox="0 0 130 40" fill="none" xmlns="http://www.w3.org/2000/svg">
<path d="M6.96794 4.69224L1.55227 7.8459L1.54297 19.9833V32.1207L1.84074 31.9522C2.91084 31.3346 11.5927 26.5152 11.6392 26.5152C11.6671 26.5152 11.6857 29.0044 11.6857 32.0458C11.6857 35.0872 11.7229 37.5577 11.7602 37.539C11.8067 37.5296 14.2912 35.8077 17.2968 33.7209L22.7497 29.9309L22.7311 24.8495L22.7125 19.7587L17.6225 16.7173L12.5232 13.6666V7.60259C12.5232 4.26177 12.4953 1.52923 12.4581 1.53859C12.4115 1.54794 9.94563 2.96101 6.96794 4.69224ZM11.6857 8.34188V13.6572L7.11683 16.3243C4.6044 17.7841 2.51072 18.9913 2.46419 19.01C2.41766 19.0288 2.38044 16.7828 2.38044 13.7134V8.38867L6.96794 5.72163C9.48037 4.25241 11.5741 3.04523 11.6206 3.03587C11.6578 3.02651 11.6857 5.42217 11.6857 8.34188ZM11.6485 15.9593C11.6206 16.6425 11.5648 18.8603 11.5368 20.8723C11.4996 22.9404 11.4438 24.55 11.3973 24.55C11.3507 24.55 9.40593 23.4925 7.07961 22.1918C4.4183 20.7132 2.88293 19.8055 2.95737 19.7587C4.68815 18.7293 11.5648 14.7334 11.6299 14.7334C11.6764 14.7241 11.6857 15.2762 11.6485 15.9593ZM17.2968 17.5315C19.3254 18.7387 20.9817 19.7587 20.991 19.7868C20.991 19.8429 12.6349 24.915 12.4022 25.0085C12.3092 25.046 12.3743 18.3831 12.486 15.9125L12.5511 14.7241L13.0815 15.0235C13.37 15.192 15.2683 16.3243 17.2968 17.5315ZM21.875 28.733L21.8099 29.491L17.2875 32.6447C14.7937 34.3853 12.7 35.8264 12.6442 35.8452C12.5511 35.8826 12.5232 34.8626 12.5232 30.9322V25.9818L17.2037 23.1557L21.875 20.3389L21.9029 24.157C21.9215 26.2532 21.9029 28.3119 21.875 28.733ZM6.90281 23.0527C9.30357 24.4003 11.2949 25.5232 11.3321 25.5607C11.388 25.6168 9.24774 26.8334 3.10626 30.2397L2.38044 30.6421V25.6355C2.38044 22.8749 2.41766 20.6196 2.45489 20.6196C2.50141 20.6196 4.50205 21.7145 6.90281 23.0527Z" fill="#011A49"/>
<path d="M31.041 19.4038V28.8555H32.0646H33.0882V19.4038V9.95223H32.0646H31.041V19.4038Z" fill="#011A49"/>
<path d="M117.58 19.4038V28.8555H118.231H118.883V27.2365V25.6269L120.446 24.0548C121.302 23.1939 122.028 22.492 122.047 22.492C122.075 22.492 123.247 23.9238 124.652 25.6737L127.211 28.8461L128.03 28.8555H128.858L128.076 27.9009C125.527 24.766 122.977 21.5562 122.977 21.4907C122.977 21.4533 124.261 20.1244 125.843 18.5336L128.7 15.6513L127.816 15.6793L126.932 15.7074L122.931 19.8624L118.929 24.0267L118.901 16.9895L118.883 9.95223H118.231H117.58V19.4038Z" fill="#011A49"/>
<path d="M51.6052 13.4146V15.4734H50.6747H49.7441V16.3624V17.2514H50.6747H51.6052V21.6684C51.6052 24.2512 51.6517 26.2632 51.6982 26.4972C51.9309 27.5078 52.5636 28.3313 53.4104 28.7244C54.4898 29.2204 56.1741 29.2297 57.2814 28.7525L57.7467 28.5559V27.7231C57.7467 27.2645 57.7188 26.8902 57.6815 26.8902C57.635 26.8996 57.3745 26.9744 57.0953 27.0774C56.751 27.199 56.3323 27.2552 55.8298 27.2645C55.1784 27.2645 55.0016 27.2271 54.5736 27.0025C54.1828 26.7966 54.0339 26.6469 53.8385 26.2819L53.6058 25.8234L53.5779 21.5374L53.55 17.2514L55.6716 17.2327L57.7932 17.2046L57.8211 16.3343L57.849 15.4734H55.7088H53.5593L53.5407 13.4333L53.5128 11.4027L52.5636 11.3746L51.6052 11.3465V13.4146Z" fill="#011A49"/>
<path d="M40.6442 15.3798C38.5133 15.9413 36.7825 17.7006 36.1311 19.984C35.4053 22.4826 35.9915 25.2619 37.6293 27.0774C40.1138 29.8474 44.8502 29.8848 47.4835 27.1616L47.9767 26.6563L47.3719 26.1041L46.7577 25.5614L46.3855 25.9076C45.3433 26.8528 44.2081 27.3394 42.8588 27.4236C40.4581 27.5734 38.5319 26.0948 37.9736 23.6711C37.8898 23.3248 37.8526 23.0066 37.8805 22.9598C37.9177 22.9037 39.9556 22.8663 43.2031 22.8663H48.4699L48.4141 21.8088C48.2373 18.4586 46.5437 16.0723 43.8266 15.3798C42.8867 15.1365 41.5747 15.1365 40.6442 15.3798ZM43.4264 17.0549C44.5245 17.4012 45.3526 18.1685 45.883 19.3196C46.1436 19.8998 46.3948 20.8262 46.3948 21.2005V21.4626H42.1702C39.5741 21.4626 37.9177 21.4251 37.8805 21.369C37.7968 21.238 38.0945 20.0776 38.3551 19.4974C39.2856 17.4386 41.3979 16.4279 43.4264 17.0549Z" fill="#011A49"/>
<path d="M63.5633 15.2483C61.9069 15.5103 60.5484 16.4648 60.0645 17.7001C59.776 18.4394 59.7667 19.7214 60.0459 20.3484C60.5763 21.5275 61.451 22.0609 64.2798 22.9219C66.9597 23.736 67.5739 24.2227 67.4994 25.4392C67.4529 26.2627 67.1551 26.6932 66.3735 27.0769C64.9591 27.7694 62.7537 27.4231 60.8461 26.1878C60.5018 25.9633 60.1948 25.7948 60.1576 25.8229C60.0366 25.8884 59.2363 27.0581 59.2363 27.1517C59.2363 27.2079 59.4597 27.395 59.7295 27.5728C62.7072 29.5474 66.5131 29.6503 68.3555 27.7974C69.7513 26.3937 69.8257 24.1197 68.5044 22.8377C67.9461 22.2855 67.0714 21.8457 65.6104 21.3685C62.9212 20.4982 62.3908 20.2361 61.9535 19.5904C61.6371 19.1132 61.6929 18.3271 62.093 17.8405C63.0608 16.6239 65.2196 16.6146 67.5459 17.803C68.0577 18.0744 68.2718 18.1399 68.3369 18.0651C68.5323 17.803 69.0999 16.8017 69.0999 16.7081C69.0999 16.5303 67.3784 15.7536 66.4665 15.5197C65.5825 15.2951 64.1402 15.1641 63.5633 15.2483Z" fill="#011A49"/>
<path d="M97.7504 15.3882C96.3174 15.5847 94.9961 16.2585 93.898 17.3815C93.0419 18.2424 92.5022 19.1782 92.1579 20.3948C91.8881 21.3493 91.8695 23.1367 92.1207 24.0818C92.7628 26.4775 94.5959 28.3398 96.8943 28.9574C97.89 29.2288 99.3974 29.2288 100.375 28.9667C102.291 28.4521 103.762 27.2261 104.692 25.3733C105.26 24.2316 105.418 23.4174 105.371 21.9482C105.334 21.0031 105.278 20.61 105.083 20.0111C104.357 17.7839 102.552 16.0714 100.365 15.538C99.5649 15.3414 98.5041 15.2853 97.7504 15.3882ZM100.095 16.7171C100.961 16.9791 101.621 17.3909 102.329 18.0927C103.51 19.2625 104.031 20.5445 104.031 22.3038C104.031 23.9696 103.492 25.3358 102.412 26.4214C101.37 27.4695 100.198 27.9561 98.6902 27.9561C97.5364 27.9561 96.7175 27.7034 95.7684 27.0671C92.1021 24.6059 92.6232 18.5606 96.6524 16.9136C96.9502 16.7919 97.4247 16.6516 97.6946 16.5954C98.2994 16.4925 99.5463 16.5486 100.095 16.7171Z" fill="#011A49"/>
<path d="M114.51 15.4735C113.728 15.5764 113.226 15.7355 112.509 16.1098C111.69 16.5309 110.509 17.7007 109.969 18.6084L109.578 19.2635V17.4574V15.6606H108.927H108.275V22.2581V28.8555H108.927H109.578V25.6831C109.578 22.2674 109.634 21.6872 110.071 20.5081C110.388 19.6752 110.881 18.9172 111.495 18.3183C112.37 17.4761 113.775 16.8772 114.873 16.8772H115.347V16.1285C115.347 15.2863 115.422 15.3518 114.51 15.4735Z" fill="#011A49"/>
<path d="M80.5081 15.6514C80.4801 15.6982 79.5961 18.2717 78.5353 21.3786C77.4838 24.4854 76.5905 27.0589 76.5533 27.0963C76.5254 27.1338 75.6228 24.5697 74.5434 21.416L72.5893 15.6608H71.8728H71.1562L71.5005 16.6247C71.6867 17.1581 72.7661 20.1527 73.892 23.2689L75.9392 28.9492H76.5068H77.0744L79.0192 23.3438C80.0893 20.2556 80.9826 17.757 81.0105 17.7851C81.0385 17.8038 81.9225 20.3211 82.974 23.3625L84.8908 28.9024L85.4492 28.9305C85.8586 28.9492 86.0261 28.9211 86.0633 28.8276C86.3518 28.0696 90.7811 15.7637 90.7811 15.717C90.7811 15.6795 90.474 15.6608 90.1111 15.6795L89.4318 15.7076L87.4777 21.4347C86.4076 24.5884 85.4957 27.1338 85.4678 27.0963C85.4305 27.0589 84.5465 24.4854 83.4857 21.3879C82.4342 18.2811 81.5409 15.6982 81.513 15.6514C81.4479 15.5392 80.5732 15.5392 80.5081 15.6514Z" fill="#011A49"/>
</svg>
